<svg xmlns="http://www.w3.org/2000/svg" xmlns:xlink="http://www.w3.org/1999/xlink" viewBox="0 0 424.25 82"><defs><style>.cls-1{fill:url(#linear-gradient);}.cls-2{fill:url(#linear-gradient-2);}.cls-3{font-size:74px;fill:#303030;font-family:BrandonGrotesque-Bold, Brandon Grotesque;font-weight:700;}.cls-4{letter-spacing:-0.01em;}</style><linearGradient id="linear-gradient" x1="62.41" y1="15.84" x2="39.79" y2="55.01" gradientUnits="userSpaceOnUse"><stop offset="0.61" stop-color="#fbba00"/><stop offset="1" stop-color="#d68505"/></linearGradient><linearGradient id="linear-gradient-2" x1="23.92" y1="66.16" x2="46.54" y2="26.99" xlink:href="#linear-gradient"/></defs><title>Isolated_Artboard 8</title><g id="Layer_2" data-name="Layer 2"><path class="cls-1" d="M52.87,41.77l-9.75,9.74L55.94,64.33,78.58,41.7a1.1,1.1,0,0,0,0-1.54L43.12,4.7,30.3,17.52,52.87,40.09A1.2,1.2,0,0,1,52.87,41.77Z"/><path class="cls-2" d="M33.47,40.23l9.74-9.74L30.39,17.67,7.76,40.3a1.08,1.08,0,0,0,0,1.54L43.21,77.3,56,64.48,33.47,41.91A1.18,1.18,0,0,1,33.47,40.23Z"/><text class="cls-3" transform="translate(88.73 67.08)">LIONB<tspan class="cls-4" x="222.59" y="0">O</tspan><tspan x="281.05" y="0">X</tspan></text></g></svg>